<svg width="32" height="30" viewBox="0 0 32 30" fill="none" xmlns="http://www.w3.org/2000/svg">
<path d="M31.2749 3.3428C27.4022 3.3428 21.9311 3.66683 19.1352 6.46126C17.9247 7.67176 17.3202 9.64511 17.4771 11.8787C17.4975 12.1737 17.6937 12.425 17.9756 12.5181C18.256 12.6096 18.5641 12.5239 18.7559 12.2987C20.3108 10.4691 22.2435 9.0029 24.5046 7.94062C24.6964 7.84907 24.9231 7.84178 25.1295 7.91446C25.3111 7.97985 25.4535 8.10335 25.5276 8.26179C25.6816 8.58732 25.6322 9.01598 25.1207 9.25718C25.0917 9.27169 25.0655 9.29063 25.0365 9.3037C25.0263 9.30806 25.0147 9.30663 25.006 9.31099C19.4346 11.9296 16.6954 16.4983 15.4514 21.1964C14.5446 15.314 12.6294 11.8511 10.8202 9.72514C9.51095 8.02787 8.22341 7.12832 7.47943 6.61976C7.34136 6.52528 6.92435 6.24049 6.7514 6.06754C6.46803 5.78417 6.46803 5.3235 6.7514 5.04013C7.03477 4.7582 7.49687 4.7582 7.81218 5.07208C7.88923 5.1404 8.01272 5.22759 8.16966 5.33222L8.29902 5.41941C9.35108 6.14015 11.31 7.47851 13.0479 10.3601C13.2034 10.6173 13.5042 10.7554 13.7963 10.7002C14.0928 10.6479 14.3252 10.4197 14.3834 10.1247C14.7627 8.18768 14.5927 5.31328 12.8649 3.5855C10.069 0.7925 4.59789 0.468468 0.726671 0.468468C0.32553 0.4684 0 0.79393 0 1.195C0 5.06765 0.324032 10.5388 3.11846 13.3347C4.28387 14.5001 6.08147 15.0233 7.86736 15.0233C9.32486 15.0233 10.7533 14.6585 11.8476 14.0264C13.3399 17.1187 14.5316 21.7383 14.5316 28.805C14.5316 29.2061 14.8571 29.5316 15.2582 29.5316C15.6592 29.5316 15.9848 29.2061 15.9848 28.805C15.9848 24.8626 16.6605 20.1311 19.173 16.2366C20.18 17.2205 21.9137 17.8439 23.8347 17.902C23.9306 17.9049 24.0251 17.9063 24.1195 17.9063C26.0711 17.9063 27.796 17.2946 28.8815 16.2076C31.6773 13.4117 31.9999 7.94055 31.9999 4.06783C32.0015 3.66683 31.6774 3.3428 31.2749 3.3428Z" fill="#00B307"/>
</svg>
