<svg width="45" height="32" viewBox="0 0 45 32" fill="none" xmlns="http://www.w3.org/2000/svg">
<rect x="0.5" y="0.5" width="44" height="30.7647" rx="4.79412" fill="#1A1A1A" stroke="#333333"/>
<path d="M18.5293 30.6767L43.6764 23.0664V26.7061C43.6764 28.899 41.8987 30.6767 39.7058 30.6767H18.5293Z" fill="#FD6020"/>
<path fill-rule="evenodd" clip-rule="evenodd" d="M38.9044 12.0588C40.2878 12.0588 41.0488 12.6988 41.0488 13.9076C41.1179 14.8321 40.4954 15.6143 39.6653 15.7565L41.533 18.3875H40.0803L38.4893 15.8276H38.351V18.3875H37.175V12.0588H38.9044ZM38.3506 14.9743H38.6964C39.4574 14.9743 39.8032 14.6188 39.8032 13.9788C39.8032 13.4099 39.4574 13.0544 38.6964 13.0544H38.3506V14.9743ZM33.0933 18.3875H36.4136V17.3209H34.2692V15.6143H36.3444V14.5476H34.2692V13.1254H36.4136V12.0588H33.0933V18.3875ZM29.6349 16.3254L28.0439 12.0588H26.7988L29.3582 18.5297H29.9808L32.5402 12.0588H31.2951L29.6349 16.3254ZM15.5927 15.2587C15.5927 17.0365 16.9762 18.5298 18.7055 18.5298C19.2589 18.5298 19.7431 18.3875 20.2274 18.1742V16.752C19.8815 17.1787 19.3973 17.4631 18.8439 17.4631C17.7371 17.4631 16.8378 16.6098 16.8378 15.4721V15.3298C16.7687 14.1921 17.6679 13.1966 18.7747 13.1255C19.3281 13.1255 19.8815 13.4099 20.2274 13.8366V12.4144C19.8123 12.1299 19.2589 12.0588 18.7747 12.0588C16.9762 11.9166 15.5927 13.4099 15.5927 15.2587ZM13.4467 14.4765C12.7549 14.1921 12.5474 14.0499 12.5474 13.6943C12.6166 13.2677 12.9625 12.9121 13.3775 12.9832C13.7234 12.9832 14.0692 13.1966 14.3459 13.481L14.9685 12.6277C14.4843 12.201 13.8617 11.9166 13.2392 11.9166C12.2707 11.8455 11.4406 12.6277 11.3715 13.6232V13.6943C11.3715 14.5476 11.7173 15.0454 12.8241 15.401C13.1008 15.4721 13.3775 15.6143 13.6542 15.7565C13.8617 15.8987 14.0001 16.112 14.0001 16.3965C14.0001 16.8942 13.585 17.3209 13.17 17.3209H13.1008C12.5474 17.3209 12.0632 16.9654 11.8557 16.4676L11.0948 17.2498C11.5098 18.032 12.3399 18.4586 13.17 18.4586C14.2768 18.5298 15.176 17.6764 15.2452 16.5387V16.3254C15.176 15.4721 14.8302 15.0454 13.4467 14.4765ZM9.43519 18.3875H10.6111V12.0588H9.43519V18.3875ZM3.97046 12.0588H5.69981H6.04568C7.70585 12.1299 9.02015 13.5521 8.95098 15.2587C8.95098 16.1831 8.53594 17.0365 7.8442 17.6764C7.22163 18.1742 6.46072 18.4586 5.69981 18.3875H3.97046V12.0588ZM5.4924 17.3209C6.04579 17.392 6.66835 17.1786 7.0834 16.8231C7.49844 16.3964 7.70596 15.8276 7.70596 15.1876C7.70596 14.6187 7.49844 14.0498 7.0834 13.6232C6.66835 13.2676 6.04579 13.0543 5.4924 13.1254H5.14653V17.3209H5.4924Z" fill="white"/>
<path fill-rule="evenodd" clip-rule="evenodd" d="M23.7534 11.9121C22.0241 11.9121 20.5714 13.3343 20.5714 15.1831C20.5714 16.9609 21.9549 18.4542 23.7534 18.5253C25.5519 18.5964 26.9354 17.1031 27.0046 15.2542C26.9354 13.4054 25.5519 11.9121 23.7534 11.9121V11.9121Z" fill="#FD6020"/>
</svg>
