<svg width="45" height="32" viewBox="0 0 45 32" fill="none" xmlns="http://www.w3.org/2000/svg">
<rect x="0.5" y="0.5" width="44" height="30.7647" rx="4.79412" fill="#1A1A1A" stroke="#333333"/>
<path fill-rule="evenodd" clip-rule="evenodd" d="M28.5583 24.3925C33.5147 24.3925 37.5327 20.4223 37.5327 15.5249C37.5327 10.6274 33.5147 6.65723 28.5583 6.65723C26.3369 6.65723 24.3041 7.45468 22.7369 8.77567C21.1698 7.45469 19.137 6.65723 16.9156 6.65723C11.9592 6.65723 7.94116 10.6274 7.94116 15.5249C7.94116 20.4223 11.9592 24.3925 16.9156 24.3925C19.137 24.3925 21.1698 23.5951 22.737 22.2741C24.3041 23.5951 26.3369 24.3925 28.5583 24.3925Z" fill="#ED0006"/>
<path fill-rule="evenodd" clip-rule="evenodd" d="M22.7363 22.274C24.6658 20.6475 25.8893 18.2274 25.8893 15.5249C25.8893 12.8224 24.6658 10.4022 22.7363 8.77576C24.3035 7.45472 26.3364 6.65723 28.5578 6.65723C33.5142 6.65723 37.5322 10.6274 37.5322 15.5249C37.5322 20.4223 33.5142 24.3925 28.5578 24.3925C26.3364 24.3925 24.3035 23.595 22.7363 22.274Z" fill="#F9A000"/>
<path fill-rule="evenodd" clip-rule="evenodd" d="M22.737 22.2736C24.6665 20.6471 25.8899 18.227 25.8899 15.5245C25.8899 12.822 24.6665 10.4019 22.737 8.77539C20.8075 10.4019 19.584 12.822 19.584 15.5245C19.584 18.227 20.8075 20.6471 22.737 22.2736Z" fill="#FF5E00"/>
</svg>
